<mxfile host="app.diagrams.net" modified="2024-04-26T10:17:57.346Z" agent="Mozilla/5.0 (Windows NT 10.0; Win64; x64) AppleWebKit/537.36 (KHTML, like Gecko) Chrome/124.0.0.0 Safari/537.36" version="23.1.1" etag="374NOMpF_aszPLaXvKrS" type="github">
  <diagram name="Strona-1" id="x_D2oYyj1BDK7y6VQZjv">
    <mxGraphModel>
      <root>
        <mxCell id="0" />
        <mxCell id="1" parent="0" />
      </root>
    </mxGraphModel>
  </diagram>
</mxfile>
